<svg width="1600" height="1980" xmlns="http://www.w3.org/2000/svg" fill="none">

 <g>
  <title>Layer 1</title>
  <path id="svg_1" fill="#EF2A82" d="m1600,245l-1600,0l0,-54.244l1600,-190.75586l0,244.99986z"/>
  <path id="svg_2" fill="#172755" d="m1600,1086l-1600.00012,0l0.00032,-882.279l1599.9998,-186.7209l0,1068.9999z"/>
  <path opacity="0.07" id="svg_4" fill="#8794BA" d="m2429.54,657.483c-181.08,-264.177 -485.07,-437.483 -829.54,-437.483c-555.05,0 -1005,449.954 -1005,1005c0,80.75 9.524,159.28 27.509,234.52l511.781,-511.788c49.06,-49.06 128.61,-49.06 177.66,0l413.67,413.668l703.92,-703.917z"/>
  <path opacity="0.07" id="svg_5" fill="#8794BA" d="m2548.99,893.356l-734.54,734.534c-49.05,49.06 -128.6,49.06 -177.66,0l-413.67,-413.67l-500.778,500.79c171.921,307.27 500.528,514.99 877.658,514.99c555.05,0 1005,-449.95 1005,-1005c0,-116.21 -19.73,-227.813 -56.01,-331.644z"/>
  <path id="svg_6" d="m1,1086l1600,0l0,740l-1600,0l0,-740z" opacity="undefined" fill="#F8F9FF"/>
  <path id="svg_37" stroke="#D6D6D6" d="m743,1408"/>
  <path id="svg_39" d="m0,1826l1600,0l0,154l-1600,0l0,-154z" opacity="undefined" fill="#1F2F5C"/>
  <rect id="svg_58" fill="#2A407C" height="1" width="1180" y="1826" x="211"/>
 </g>
</svg>